<svg width="134" height="68" viewBox="0 0 134 68" fill="none" xmlns="http://www.w3.org/2000/svg">
<path d="M102.112 0.922743C102.493 4.67495 102.691 8.42715 102.834 12.1792C102.968 15.9314 103.031 19.6835 103.032 23.4358C103.034 27.1879 102.971 30.9401 102.836 34.6921C102.694 38.4443 102.496 42.1966 102.112 45.9488C101.728 42.1966 101.53 38.4443 101.388 34.6921C101.253 30.9401 101.19 27.1879 101.192 23.4358C101.193 19.6835 101.256 15.9314 101.391 12.1792C101.533 8.42715 101.731 4.67495 102.112 0.922743Z" fill="#211E1E"/>
<path d="M1.63813 33.6804H22.9214C22.8143 30.8042 21.7258 28.3673 19.6531 26.3699C17.5807 24.3725 15.1096 23.3737 12.2399 23.3737C9.37026 23.3213 6.89918 24.3063 4.82669 26.3299C2.75421 28.3549 1.69055 30.8042 1.63813 33.6804ZM12.2399 45.3455C9.10378 45.3455 6.4334 44.2406 4.22881 42.0296C2.02308 39.8201 0.920787 37.1434 0.920787 33.9999C0.920787 30.8579 2.02308 28.1812 4.22881 25.9705C6.4334 23.7608 9.10378 22.6547 12.2399 22.6547C15.3749 22.6547 18.0591 23.7608 20.2909 25.9705C22.5228 28.1812 23.6387 30.8579 23.6387 33.9999V34.3196H1.63813C1.69055 37.1958 2.75421 39.6329 4.82669 41.6303C6.89918 43.6275 9.37026 44.6263 12.2399 44.6263V45.3455Z" fill="#211E1E"/>
<path d="M2.61582 32.7576H21.925C21.6485 30.5295 20.6911 28.6501 19.015 27.0351C17.1031 25.1924 14.887 24.2965 12.2399 24.2965C9.58316 24.2477 7.3753 25.1296 5.46915 26.991C3.78985 28.6316 2.85091 30.5257 2.61582 32.7576ZM13.1607 46.2683H12.2399C8.86482 46.2683 5.95041 45.0615 3.57763 42.6818C1.20386 40.3043 0 37.383 0 33.9999C0 30.6185 1.20386 27.6973 3.57778 25.3179C5.95183 22.9384 8.8661 21.7319 12.2399 21.7319C15.6107 21.7319 18.537 22.9371 20.9379 25.314C23.341 27.6942 24.5595 30.6166 24.5595 33.9999V35.2425H2.61582C2.85077 37.47 3.78815 39.3492 5.46475 40.965C7.37686 42.8077 9.59296 43.7035 12.2399 43.7035H13.1607V46.2683Z" fill="#211E1E"/>
<path d="M31.5294 0.922739H32.2467V45.0259H31.5294V0.922739Z" fill="#211E1E"/>
<path d="M33.1675 45.9488H30.6087V0H33.1675V45.9488Z" fill="#211E1E"/>
<path d="M44.6189 27.0981C42.7054 29.0411 41.7752 31.2988 41.7752 34C41.7752 36.7024 42.7054 38.9599 44.6187 40.9018C46.5277 42.841 48.7774 43.7834 51.4963 43.7834C54.2151 43.7834 56.4647 42.841 58.374 40.9021C60.2873 38.9599 61.2174 36.7023 61.2174 34C61.2174 31.3016 60.2755 29.0454 58.3382 27.1019C56.4 25.1605 54.1488 24.2167 51.4564 24.2167C48.7654 24.2167 46.529 25.1592 44.6189 27.0981ZM41.7752 68H39.2165V33.916L39.9631 29.8414L39.99 29.7678C40.8488 27.4159 42.3411 25.4689 44.4257 23.9806C46.5154 22.4883 48.8809 21.7319 51.4564 21.7319C54.8271 21.7319 57.7534 22.9371 60.1542 25.314C62.5576 27.6941 63.7761 30.6166 63.7761 34C63.7761 37.385 62.5575 40.3073 60.1542 42.6862C57.755 45.0631 54.8285 46.2683 51.4564 46.2683C48.8789 46.2683 46.5134 45.5116 44.4253 44.0194C43.396 43.2849 42.5109 42.4383 41.7752 41.4858V68Z" fill="#211E1E"/>
<path d="M69.7896 22.9742H70.4272V45.0259H69.7896V22.9742Z" fill="#211E1E"/>
<path d="M71.3478 45.9488H68.8688V22.0515H71.3478V45.9488Z" fill="#211E1E"/>
<path d="M121.68 23.2938C118.757 23.2938 116.26 24.3462 114.188 26.4497C112.115 28.5545 111.079 31.0713 111.079 33.9998C111.079 36.93 112.115 39.4468 114.188 41.5504C116.26 43.6551 118.757 44.7063 121.68 44.7063C124.497 44.7063 126.928 43.735 128.974 41.7898C131.019 39.8463 132.149 37.4892 132.362 34.7191V33.9998C132.362 31.0713 131.312 28.5545 129.213 26.4497C127.113 24.3462 124.602 23.2938 121.68 23.2938ZM121.68 45.3454C118.544 45.3454 115.874 44.2406 113.669 42.0296C111.463 39.8201 110.361 37.1434 110.361 33.9998C110.361 30.8579 111.463 28.1812 113.669 25.9705C115.874 23.7608 118.544 22.6547 121.68 22.6547C124.815 22.6547 127.499 23.7608 129.731 25.9705C131.963 28.1812 133.079 30.8579 133.079 33.9998C133.079 34.2672 133.052 34.507 133 34.7191V45.0259H132.362V37.9949C131.511 40.1796 130.116 41.9497 128.177 43.308C126.236 44.6663 124.072 45.3454 121.68 45.3454Z" fill="#211E1E"/>
<path d="M121.68 24.2166C118.99 24.2166 116.753 25.1592 114.843 27.0982C112.929 29.0409 111.999 31.2987 111.999 33.9999C111.999 36.7024 112.929 38.9602 114.843 40.9018C116.752 42.8411 118.988 43.7835 121.68 43.7835C124.277 43.7835 126.455 42.9124 128.341 41.1203C130.224 39.3305 131.238 37.2245 131.441 34.6829V33.9999C131.441 31.3014 130.499 29.045 128.562 27.102C126.624 25.1604 124.373 24.2166 121.68 24.2166ZM121.68 46.2682C118.305 46.2682 115.391 45.0615 113.018 42.6818C110.644 40.3044 109.441 37.3832 109.441 33.9999C109.441 30.6182 110.644 27.697 113.018 25.3178C115.392 22.9384 118.307 21.7319 121.68 21.7319C125.051 21.7319 127.978 22.9372 130.378 25.3139C132.782 27.6943 134 30.6166 134 33.9999C134 34.2912 133.973 34.5671 133.92 34.822V45.9488H131.441V41.4778C130.679 42.4575 129.764 43.3219 128.704 44.0644C126.615 45.5267 124.252 46.2682 121.68 46.2682Z" fill="#211E1E"/>
<path d="M63.752 34C63.752 40.7802 58.2683 46.2766 51.5038 46.2766C44.7393 46.2766 39.2557 40.7802 39.2557 34C39.2557 27.2199 44.7393 21.7236 51.5038 21.7236C58.2683 21.7236 63.752 27.2199 63.752 34Z" fill="#211E1E"/>
<path d="M98.4433 42.5864C99.5422 41.4333 100.37 40.0264 100.839 38.5229C101.311 37.0188 101.424 35.4336 101.258 33.9195C101.092 32.4018 100.648 30.9508 100.007 29.6212C99.3668 28.2891 98.4901 27.086 97.4219 26.0804C96.3569 25.0714 95.112 24.2696 93.7613 23.704C92.4083 23.1431 90.9392 22.8479 89.4599 22.8359C87.9793 22.8278 86.4961 23.1128 85.0982 23.6497C84.9254 23.7216 84.7486 23.7858 84.5779 23.8636C84.4087 23.944 84.2348 24.0171 84.0676 24.1035C83.9016 24.1913 83.7295 24.2703 83.5652 24.3633C83.4024 24.4587 83.2348 24.5477 83.0743 24.6484C82.4282 25.0449 81.8176 25.5082 81.2531 26.0297C80.1286 27.0743 79.1962 28.3601 78.5941 29.8033C77.9891 31.2431 77.699 32.8246 77.7658 34.3888C77.8281 35.9544 78.2658 37.4892 78.9753 38.8499C79.6839 40.2161 80.6654 41.3992 81.7836 42.3922C84.0303 44.3726 86.8699 45.5655 89.9159 45.7774C91.4351 45.8765 93.0123 45.6977 94.4944 45.1627C95.9757 44.6314 97.3453 43.7404 98.4433 42.5864ZM98.5894 42.7271C97.4645 43.89 96.1581 44.879 94.6998 45.6334C93.9708 46.0093 93.2053 46.3308 92.4081 46.5756C91.6111 46.8184 90.7841 46.9896 89.9416 47.0722C88.2582 47.2343 86.5114 47.0275 84.8968 46.4234C83.2807 45.8259 81.8022 44.8491 80.613 43.6131C79.4195 42.378 78.5259 40.8791 77.9514 39.2987C77.3741 37.7151 77.1142 36.05 77.1125 34.4019C77.1112 31.1073 78.2578 27.8157 80.4535 25.2596C81.5505 23.9919 82.902 22.9008 84.4469 22.1569C85.9865 21.404 87.6958 20.9897 89.4217 20.9174C91.1489 20.8416 92.8978 21.1174 94.5312 21.7282C96.1687 22.3302 97.6724 23.2996 98.9208 24.5171C100.164 25.7395 101.163 27.2185 101.805 28.833C102.451 30.4475 102.705 32.1968 102.603 33.8926C102.501 35.5926 102.044 37.2326 101.347 38.7219C100.651 40.2139 99.7117 41.5617 98.5894 42.7271Z" fill="#211E1E"/>
</svg>
